# xmcd
#
# Track frame offsets: 
#        150
#        18011
#        35364
#        60682
#        77873
#        93879
#        109718
#        125553
#        143325
#        170146
#        186559
#
# Disc length: 2748 seconds
#
# Revision: 0
# Processed by: cddbd v1.5.2PL0 Copyright (c) Steve Scherf et al.
# Submitted via: ExactAudioCopy v1.3
#
DISCID=8c0aba0b
DTITLE=Blue Haze - Hard Times
DYEAR=2018
DGENRE=Electric Blues, Blues Rock
TTITLE0=Hard Times
TTITLE1=I'm Ready To Ride On
TTITLE2=Long Autumn Blues
TTITLE3=Out On The Road
TTITLE4=Keep On Running
TTITLE5=Burn Down Slow
TTITLE6=Go Down
TTITLE7=Southern Girl
TTITLE8=Mind Blowing Woman
TTITLE9=On My Way Home
TTITLE10=Night Train
EXTD=
EXTT0=
EXTT1=
EXTT2=
EXTT3=
EXTT4=
EXTT5=
EXTT6=
EXTT7=
EXTT8=
EXTT9=
EXTT10=
PLAYORDER=
